<?xml version="1.0" ?>

<!-- Uploaded to: SVG Repo, www.svgrepo.com, Generator: SVG Repo Mixer Tools -->
<svg fill="#000000" width="800px" height="800px" viewBox="0 0 512 512" version="1.1" xml:space="preserve" xmlns="http://www.w3.org/2000/svg" xmlns:xlink="http://www.w3.org/1999/xlink">

<g id="Labour_Day">

<g id="XMLID_272_">

<path d="M467,283.221c0-5.8-0.039-11.221-0.502-17.221H45.522C45.044,272,45,277.416,45,283.221V300h422V283.221z    " id="XMLID_363_"/>

<path d="M405.179,134.052C382.621,111.493,356,94.331,325,83.91v96.94c0,5.502-4.498,9.963-10,9.963    c-5.502,0-10-4.46-10-9.963V33.982C305,16.151,290.799,2,272.968,2H271v125.459c0,5.502-4.498,9.963-10,9.963    c-5.502,0-10-4.46-10-9.963V2h-1.192C231.977,2,217,16.151,217,33.982V180.85c0,5.502-4.498,9.963-10,9.963    c-5.502,0-10-4.46-10-9.963V80.461C121,102.675,62.388,168,48.169,246h415.765C456.447,204,436.16,165.032,405.179,134.052z" id="XMLID_364_"/>

<path d="M24.319,365h463.363c12.333,0,22.365-10.167,22.365-22.5S500.014,320,487.681,320H24.319    c-12.333,0-22.365,10.167-22.365,22.5S11.986,365,24.319,365z" id="XMLID_365_"/>

<path d="M500.084,390.472c-3.475,0-6.535,1.779-8.318,4.477c-2.389,0.97-9.314,3.123-27.572,5.575    c-2.686,0.362-5.513,0.717-8.476,1.064c-12.842,1.504-28.255,2.866-45.968,4.06c-36.069,2.437-78.94,4.007-123.982,4.542    c-11.39,0.138-23.081,0.208-34.748,0.208c-7.522,0-15.644-0.032-24.82-0.099c-45.432-0.396-88.287-1.866-123.94-4.25    c-0.007,0-0.013-0.002-0.019-0.002c-12.697-0.842-24.219-1.786-34.488-2.822c-8.302-0.837-15.788-1.734-22.397-2.688    c-16.353-2.352-22.721-4.416-24.979-5.367c-1.76-2.82-4.89-4.696-8.459-4.696c-5.502,0-9.963,4.461-9.963,9.963    c0,10.048,11.282,13.478,15.499,14.769C21.23,416.36,26,417.474,32,418.536v81.524c0,3.674,1.943,7.05,5.182,8.783    c3.241,1.736,7.132,1.543,10.188-0.494l24.342-16.241l24.352,16.241c1.667,1.112,3.589,1.673,5.522,1.673    c1.611,0,3.454-0.39,4.927-1.179c3.239-1.734,5.488-5.11,5.488-8.783v-73.466c31,1.855,66,3.061,104,3.523v69.943    c0,3.674,2.097,7.05,5.336,8.783c3.24,1.736,7.209,1.543,10.265-0.494l24.38-16.241l24.371,16.241    c1.667,1.112,3.599,1.673,5.532,1.673c1.611,0,3.304-0.39,4.777-1.179c3.239-1.734,5.339-5.11,5.339-8.783v-70.084    c37-0.573,73-1.864,104-3.771v73.855c0,3.674,2.252,7.05,5.49,8.783c3.241,1.736,7.287,1.543,10.342-0.494l24.419-16.241    l24.39,16.241c1.667,1.112,3.608,1.673,5.542,1.673c1.611,0,3.155-0.39,4.628-1.179c3.239-1.734,5.189-5.11,5.189-8.783v-81.831    c6-0.953,10.004-1.945,13.616-2.966c4.894-1.382,16.392-4.621,16.392-14.829C510.007,394.933,505.586,390.472,500.084,390.472z" id="XMLID_576_"/>

</g>

</g>

<g id="Layer_1"/>

</svg>